<?xml version="1.0" encoding="UTF-8"?>
<svg width="250" height="75" version="1.1" viewBox="104.8 49.784 250 75" xml:space="preserve" xmlns="http://www.w3.org/2000/svg"><text x="183.576" y="86.112" font-family="Tahoma, Verdana, sans-serif" font-size="24px" style="white-space:pre">SafeBoot</text><text x="339.84833" y="105.26443" fill="#7f7f7f" font-family="Tahoma, Verdana, sans-serif" font-size="18px" style="white-space:pre"><tspan text-align="end" text-anchor="end">Firmware Update</tspan></text><g transform="matrix(2.8613 0 0 2.8613 109.9 52.844)" fill="none"><path d="m11 4a4 4 0 0 0-3.999 4.102 1 1 0 0 1-0.75 0.992 3.002 3.002 0 0 0 0.749 5.906h1a1 1 0 1 1 0 2h-1a5 5 0 0 1-1.97-9.596 6 6 0 0 1 11.169-2.4 6 6 0 0 1-0.199 11.996 1 1 0 1 1 0-2 4 4 0 1 0-0.328-7.987 1 1 0 0 1-0.999-0.6 4.001 4.001 0 0 0-3.673-2.413zm0.293 5.293a1 1 0 0 1 1.414 0l2 2a1 1 0 0 1-1.414 1.414l-0.293-0.293v7.586a1 1 0 1 1-2 0v-7.586l-0.293 0.293a1 1 0 0 1-1.414-1.414z" fill="#0d0d0d"/></g></svg>
