<?xml version="1.0" encoding="UTF-8"?>
<svg version="1.1" viewBox="0 0 800 800" xmlns="http://www.w3.org/2000/svg">
<path d="m350 683.33a33.333 33.333 0 0 1 33.333-33.333h33.333a33.333 33.333 0 1 1 0 66.667h-33.333a33.333 33.333 0 0 1-33.333-33.333z" stroke-width="33.333"/>
<path d="m612.13 635.7a33.333 33.333 0 0 1-47.133-47.133l23.567-23.567a33.333 33.333 0 0 1 47.133 47.133z" stroke-width="33.333"/>
<path d="m164.3 612.13a33.333 33.333 0 0 1 47.133-47.133l23.567 23.567a33.333 33.333 0 0 1-47.133 47.133z" stroke-width="33.333"/>
<path d="m683.33 450a33.333 33.333 0 0 1-33.333-33.333v-33.333a33.333 33.333 0 1 1 66.667 0v33.333a33.333 33.333 0 0 1-33.333 33.333z" stroke-width="33.333"/>
<path d="m116.67 450a33.333 33.333 0 0 1-33.333-33.333v-33.333a33.333 33.333 0 1 1 66.667 0v33.333a33.333 33.333 0 0 1-33.333 33.333z" stroke-width="33.333"/>
<path d="m400 266.67a133.33 133.33 0 1 0 0 266.67 133.33 133.33 0 0 0 0-266.67zm-200 133.33a200 200 0 1 1 400 0 200 200 0 0 1-400 0z" stroke-width="33.333"/>
<path d="m164.3 234.6a33.333 33.333 0 0 1 0-47.133l23.567-23.567a33.333 33.333 0 0 1 47.133 47.133l-23.567 23.567a33.333 33.333 0 0 1-47.133 0z" stroke-width="33.333"/>
<path d="m635.7 235.42a33.333 33.333 0 0 1-47.133 0l-23.567-23.567a33.333 33.333 0 1 1 47.133-47.133l23.567 23.567a33.333 33.333 0 0 1 0 47.133z" stroke-width="33.333"/>
<path d="m350 116.67a33.333 33.333 0 0 1 33.333-33.333h33.333a33.333 33.333 0 1 1 0 66.667h-33.333a33.333 33.333 0 0 1-33.333-33.333z" stroke-width="33.333"/>
<style>@media (prefers-color-scheme: light) { :root { filter: none; } }
@media (prefers-color-scheme: dark) { :root { filter: none; } }</style>
</svg>
