<?xml version="1.0" encoding="UTF-8"?>
<svg width="250" height="75" version="1.1" viewBox="104.8 49.784 250 75" xml:space="preserve" xmlns="http://www.w3.org/2000/svg"><text x="183.576" y="86.112" font-family="Tahoma, Verdana, sans-serif" font-size="24px" style="white-space:pre">LED It Be!</text><text x="339.84833" y="105.26443" fill="#7f7f7f" font-family="Tahoma, Verdana, sans-serif" font-size="18px" style="white-space:pre"><tspan text-align="end" text-anchor="end">LED toggler</tspan></text><g transform="matrix(2.676 0 0 2.676 112.1 53.636)" fill="none"><path d="m12 2a1 1 0 0 1 1 1v1a1 1 0 1 1-2 0v-1a1 1 0 0 1 1-1zm7.071 2.929a1 1 0 0 1 0 1.414l-0.707 0.707a1 1 0 1 1-1.414-1.414l0.707-0.707a1 1 0 0 1 1.414 0zm-14.142 0a1 1 0 0 1 1.414 0l0.707 0.707a1 1 0 0 1-1.414 1.414l-0.707-0.707a1 1 0 0 1 0-1.414zm7.071 3.071a4 4 0 1 0 0 8 4 4 0 0 0 0-8zm-6 4a6 6 0 1 1 12 0 6 6 0 0 1-12 0zm-4 0a1 1 0 0 1 1-1h1a1 1 0 1 1 0 2h-1a1 1 0 0 1-1-1zm17 0a1 1 0 0 1 1-1h1a1 1 0 1 1 0 2h-1a1 1 0 0 1-1-1zm-13.364 4.95a1 1 0 0 1 1.414 1.414l-0.707 0.707a1 1 0 0 1-1.414-1.414zm11.314 1.414a1 1 0 0 1 1.414-1.414l0.707 0.707a1 1 0 0 1-1.414 1.414zm-4.95 0.636a1 1 0 0 1 1 1v1a1 1 0 1 1-2 0v-1a1 1 0 0 1 1-1z" fill="#0d0d0d"/></g></svg>
