<?xml version="1.0" encoding="UTF-8"?>
<svg version="1.1" viewBox="0 0 512 512" xml:space="preserve" xmlns="http://www.w3.org/2000/svg">
<path d="m3e-3 152.1c97.186 0 176.11 78.785 176.11 175.97v55.991c-15.364 15.364-23.996 36.203-23.996 57.932v30.054c0 13.252-10.744 23.996-23.996 23.996v-167.97c0-70.681-57.44-128.04-128.12-128.04l3e-3 -47.934z" fill="#91E713"/>
<path d="m152.12 448.06 0.225-0.225c0 31.047-25.168 56.215-56.215 56.215h-31.995 295.95c54.252 0 97.991-45.01 95.913-99.723-1.877-49.41-42.763-90.297-92.173-92.173-54.714-2.078-99.723 41.661-99.723 95.913v23.996c0-30.923-25.068-55.991-55.991-55.991s-55.991 25.068-55.991 55.991v15.997h-1e-3z" fill="#fff"/>
<path d="m3e-3 104.11c123.3 0 224.65 100.27 224.65 223.96v47.992l-48.065 7.999v-55.99c0-97.185-78.367-175.97-176.59-175.97v-47.993z" fill="#FFD200"/>
<path d="m3e-3 56.121c150.46 0 271.67 121.76 271.67 271.96v39.993l-7.513 39.993-39.507-31.995v-47.992c0-123.69-101.35-223.96-224.65-223.96v-47.992z" fill="#F60A53"/>
<path d="m3e-3 56.121c150.46 0 271.67 121.76 271.67 271.96v39.993l48.036-47.994c-4.247-173.01-146.26-311.95-319.71-311.95v47.992z" fill="#960ECB"/>
<path d="m363.82 312.15c-7.608-0.289-14.996 0.391-22.134 1.778 42.727 8.382 76.116 49.854 77.808 94.371 2.077 54.715-41.661 103.7-95.913 103.7h36.5c54.252 0 97.991-48.986 95.913-103.7-1.878-49.409-42.764-94.272-92.174-96.149z" fill="#ddd"/>
<path d="m423.91 408.55h-15.673c0-27.167-21.622-48.646-47.744-48.646v-15.673c34.48-1e-3 63.417 28.793 63.417 64.319z"/>
<rect x="408.55" y="425.27" width="15.673" height="14.628"/>
<path d="m463.82 404.02c-0.982-25.878-11.832-50.437-30.551-69.156-18.718-18.719-43.278-29.568-69.156-30.552-12.687-0.481-25.077 1.295-36.732 5.147-4.576-81.886-39.212-158.19-98.246-215.85-61.625-60.182-143-93.327-229.14-93.327v15.673c82.019 0 159.5 31.56 218.19 88.866 57.565 56.217 90.763 131.06 93.809 211.16-8.634 4.525-16.681 10.307-23.915 17.272-2.869 2.763-5.546 5.666-8.049 8.682v-13.869c0-154.28-125.62-279.79-280.03-279.79v15.673c145.77 0 264.36 118.48 264.36 264.12v39.591c-3.234 7.663-5.531 15.721-6.834 24.042-6.75-8.251-15.529-14.774-25.558-18.832v-44.801c0-127.81-104.06-231.8-231.97-231.8v15.673c119.26 0 216.29 96.953 216.29 216.12v40.696c-2.683-0.346-5.413-0.541-8.189-0.541-8.564 0-16.734 1.706-24.203 4.779v-44.935c0-101.35-82.497-183.81-183.9-183.81v15.673c92.76 0 168.23 75.424 168.23 168.13v54.199c-14.587 11.708-23.951 29.669-23.951 49.785v20.453c-0.816 8.46-3.822 16.289-8.441 22.915v-147.35c0-74.812-60.604-135.68-135.84-135.68v15.673c65.828 0 120.16 53.833 120.16 120v161.72c-7.086 4.076-15.294 6.415-24.04 6.415h-31.995v15.673h295.95c28.48 0 55.045-11.302 74.801-31.824 19.747-20.512 30.026-47.515 28.942-76.034zm-40.233 65.163c-16.776 17.425-39.331 27.021-63.51 27.021h-222.02c13.541-11.753 22.117-29.083 22.117-48.378v-18.95l-0.13 0.13c1.579-25.137 22.531-45.106 48.059-45.106 26.552 0 48.154 21.602 48.154 48.154h15.673v-23.997c0-24.179 9.596-46.734 27.02-63.509 17.415-16.765 40.355-25.491 64.57-24.574 21.917 0.832 42.751 10.056 58.668 25.972 15.916 15.916 25.14 36.751 25.972 58.669 0.92 24.223-7.806 47.154-24.571 64.568z"/>
<polygon points="343.77 72.099 328.1 72.099 328.1 55.381 312.43 55.381 312.43 72.099 296.75 72.099 296.75 87.772 312.43 87.772 312.43 104.49 328.1 104.49 328.1 87.772 343.77 87.772" fill="#B62F78"/>
<g fill="#FE702D">
	<rect x="432.58" y="233.01" width="15.673" height="47.02"/>
	<polygon points="464.98 248.69 448.26 248.69 448.26 233.01 432.59 233.01 432.59 248.69 416.92 248.69 416.92 264.36 432.59 264.36 432.59 280.03 448.26 280.03 448.26 264.36 464.98 264.36"/>
</g>
<polygon points="72.101 360.49 55.382 360.49 55.382 343.77 39.709 343.77 39.709 360.49 24.036 360.49 24.036 376.16 39.709 376.16 39.709 392.88 55.382 392.88 55.382 376.16 72.101 376.16" fill="#00BA94"/>
<polygon points="512 15.675 495.28 15.675 495.28 2e-3 479.61 2e-3 479.61 15.675 463.94 15.675 463.94 31.348 479.61 31.348 479.61 48.067 495.28 48.067 495.28 31.348 512 31.348" fill="#91E713"/>
<rect x="343.77" y="152.55" width="16.718" height="15.673" fill="#00BA94"/>
<rect x="360.49" y="168.23" width="15.673" height="15.673" fill="#91E713"/>
<rect x="448.26" y="104.49" width="15.673" height="15.673" fill="#B62F78"/>
<rect x="463.93" y="183.9" width="15.673" height="15.673" fill="#91E713"/>
<rect x="248.68" y="15.673" width="15.673" height="15.673" fill="#FE702D"/>
<rect x="264.36" y=".002" width="15.673" height="15.673" fill="#00BA94"/>
<rect x="224.65" y="55.379" width="15.673" height="15.673" fill="#B62F78"/>
<rect x="384.52" y="39.705" width="15.673" height="15.673" fill="#FE702D"/>
<rect x="479.6" y="471.25" width="16.718" height="15.673" fill="#00BA94"/>
<rect x="22.988" y="280.03" width="16.718" height="15.673" fill="#FE702D"/>
<rect x="39.706" y="296.75" width="15.673" height="15.673" fill="#B62F78"/>
<rect x="97.175" y="360.49" width="15.673" height="15.673" fill="#B2E763"/>
<rect x=".003" y="496.32" width="15.673" height="15.673" fill="#FE702D"/>
<rect x="63.738" y="432.58" width="16.718" height="15.673" fill="#B62F78"/>
</svg>
